<?xml version="1.0" encoding="UTF-8"?>
<svg xmlns="http://www.w3.org/2000/svg" xmlns:xlink="http://www.w3.org/1999/xlink" width="440px" height="142px" viewBox="0 0 441 142" version="1.1">
<g id="surface1">
<path style=" stroke:none;fill-rule:nonzero;fill:rgb(0%,52.54902%,100%);fill-opacity:1;" d="M 222.832031 0 L 190.238281 0 L 157.949219 39.660156 L 157.949219 0 L 132.351562 0 L 132.351562 105.636719 L 157.949219 105.636719 L 157.949219 80.738281 L 167.628906 68.667969 L 195.8125 105.636719 L 227.800781 105.636719 L 184.207031 47.976562 Z M 222.832031 0 "/>
<path style=" stroke:none;fill-rule:nonzero;fill:rgb(0%,52.54902%,100%);fill-opacity:1;" d="M 413.980469 7 C 405.71875 2.332031 396.648438 0 386.8125 0 L 341.851562 0 L 341.851562 105.636719 L 386.8125 105.636719 C 396.746094 105.636719 405.871094 103.355469 414.183594 98.792969 C 422.5 94.226562 429.039062 87.9375 433.851562 80.027344 C 438.667969 72.066406 441.101562 63.191406 441.101562 53.300781 C 441.101562 43.460938 438.667969 34.433594 433.800781 26.269531 C 428.886719 18.105469 422.296875 11.664062 413.980469 7 Z M 411.601562 67.296875 C 409.015625 71.609375 405.566406 75.058594 401.207031 77.542969 C 396.847656 80.078125 392.035156 81.296875 386.8125 81.296875 L 367.5 81.296875 L 367.5 24.292969 L 386.8125 24.292969 C 392.035156 24.292969 396.847656 25.558594 401.207031 28.144531 C 405.566406 30.734375 409.066406 34.179688 411.601562 38.542969 C 414.183594 42.902344 415.453125 47.722656 415.453125 52.945312 C 415.453125 58.167969 414.132812 62.988281 411.601562 67.296875 Z M 411.601562 67.296875 "/>
<path style=" stroke:none;fill-rule:nonzero;fill:rgb(0%,52.54902%,100%);fill-opacity:1;" d="M 305.152344 65.523438 C 302.921875 70.085938 299.574219 73.789062 295.113281 76.476562 C 290.707031 79.214844 285.839844 80.585938 280.566406 80.585938 C 275.5 80.585938 270.835938 79.316406 266.628906 76.832031 C 262.371094 74.347656 259.023438 71 256.488281 66.738281 C 253.957031 62.480469 252.6875 57.863281 252.6875 52.792969 C 252.6875 47.722656 253.957031 43.054688 256.488281 38.847656 C 259.023438 34.585938 262.421875 31.238281 266.628906 28.703125 C 270.886719 26.167969 275.5 24.902344 280.566406 24.902344 C 285.738281 24.902344 290.503906 26.269531 294.8125 28.90625 C 299.171875 31.59375 302.515625 35.09375 304.949219 39.355469 L 326.898438 27.640625 C 322.4375 19.269531 316 12.527344 307.738281 7.503906 C 299.472656 2.535156 290.402344 0 280.566406 0 C 271.039062 0 262.167969 2.382812 254.105469 7.101562 C 245.996094 11.816406 239.609375 18.257812 234.894531 26.320312 C 230.183594 34.433594 227.800781 43.257812 227.800781 52.792969 C 227.800781 62.328125 230.183594 71.203125 234.894531 79.265625 C 239.609375 87.378906 246.046875 93.769531 254.105469 98.488281 C 262.167969 103.203125 271.039062 105.585938 280.566406 105.585938 C 290.402344 105.585938 299.523438 103.050781 307.890625 97.929688 C 316.253906 92.808594 322.691406 86.011719 327.203125 77.542969 Z M 305.152344 65.523438 "/>
<path style=" stroke:none;fill-rule:nonzero;fill:rgb(0%,52.54902%,100%);fill-opacity:1;" d="M 108.78125 64.355469 L 99.402344 23.683594 C 98.894531 21.554688 97.476562 19.777344 95.5 18.816406 L 57.582031 0.710938 C 55.605469 -0.253906 53.273438 -0.253906 51.296875 0.710938 L 13.433594 18.816406 C 11.457031 19.777344 10.035156 21.554688 9.53125 23.683594 L 0.152344 64.355469 C -0.101562 65.371094 -0.101562 66.4375 0.152344 67.5 C 0.203125 67.804688 0.304688 68.109375 0.40625 68.414062 C 0.609375 68.921875 0.8125 69.429688 1.113281 69.882812 C 1.265625 70.085938 1.367188 70.289062 1.519531 70.441406 L 15.003906 87.179688 C 15.054688 86.976562 15.054688 86.722656 15.105469 86.519531 C 15.359375 84.792969 14.800781 83.273438 14.242188 81.699219 C 13.28125 79.0625 11.960938 76.527344 11.558594 73.6875 C 11.152344 70.441406 11.253906 67.195312 11.304688 63.949219 C 11.355469 62.125 10.847656 60.503906 10.289062 58.828125 C 9.582031 56.597656 8.566406 54.46875 8.261719 52.132812 C 8.109375 50.96875 8.058594 49.800781 8.414062 48.636719 C 8.667969 47.925781 9.074219 47.316406 9.832031 47.316406 C 10.59375 47.316406 11.101562 47.875 11.304688 48.585938 C 11.710938 50.003906 12.011719 51.476562 12.316406 52.945312 C 12.773438 55.023438 13.433594 57.054688 14.292969 59.03125 C 14.851562 60.300781 15.308594 60.351562 16.171875 59.234375 C 16.574219 58.675781 16.777344 58.015625 16.777344 57.308594 C 16.980469 53.351562 17.183594 49.445312 17.386719 45.492188 C 17.488281 44.222656 17.742188 42.953125 18.199219 41.738281 C 18.5 40.824219 19.160156 40.0625 20.226562 40.214844 C 21.289062 40.367188 21.339844 41.382812 21.289062 42.246094 C 20.984375 46.199219 20.882812 50.105469 21.035156 54.0625 C 21.035156 54.921875 20.984375 55.734375 21.644531 56.851562 C 21.695312 51.578125 23.214844 46.910156 23.824219 42.042969 C 23.875 41.382812 24.078125 40.773438 24.332031 40.214844 C 24.789062 39.40625 25.597656 39 26.460938 39.152344 C 27.421875 39.355469 27.421875 40.214844 27.371094 40.976562 C 27.066406 43.664062 26.613281 46.351562 26.359375 49.039062 C 26.054688 51.878906 25.953125 54.769531 25.699219 57.863281 C 26.511719 57.257812 26.511719 56.546875 26.664062 55.9375 C 27.371094 53.402344 28.132812 50.816406 28.386719 48.179688 C 28.488281 47.46875 28.640625 46.808594 28.945312 46.199219 C 29.296875 45.238281 30.058594 44.628906 31.023438 44.78125 C 32.035156 44.933594 31.882812 45.996094 31.933594 46.757812 C 32.035156 50.207031 31.277344 53.554688 30.820312 56.902344 C 30.210938 60.90625 30.160156 64.964844 30.667969 69.023438 C 30.71875 69.480469 30.871094 69.984375 31.023438 70.390625 C 31.628906 72.066406 32.390625 72.320312 33.910156 71.40625 C 34.316406 71.152344 34.722656 70.898438 35.078125 70.542969 C 37.410156 68.3125 40.09375 68.617188 42.832031 69.578125 C 43.441406 69.78125 43.949219 70.1875 44.304688 70.746094 C 45.011719 71.964844 44.707031 72.875 43.289062 72.773438 C 39.285156 72.421875 37.003906 74.753906 34.824219 77.492188 C 33.457031 79.214844 31.425781 79.875 29.5 80.535156 C 27.828125 81.09375 27.320312 82.003906 27.371094 83.730469 C 27.472656 89.96875 27.472656 96.203125 27.472656 102.441406 C 27.472656 102.492188 27.472656 102.59375 27.472656 102.644531 L 27.777344 103.050781 C 27.878906 103.203125 28.03125 103.304688 28.132812 103.457031 C 28.539062 103.914062 28.996094 104.269531 29.5 104.625 C 30.160156 105.027344 30.820312 105.332031 31.578125 105.535156 C 32.1875 105.6875 32.796875 105.789062 33.40625 105.789062 L 33.808594 105.789062 L 50.082031 105.585938 C 50.132812 102.492188 50.183594 99.398438 50.234375 96.355469 C 50.285156 91.742188 51.703125 87.328125 52.210938 82.816406 C 52.921875 76.730469 52.921875 70.59375 52.160156 64.558594 C 51.957031 62.632812 51.144531 61.3125 49.167969 60.554688 C 47.089844 59.792969 46.027344 57.664062 44.554688 56.089844 C 40.144531 51.425781 36.902344 45.796875 32.136719 41.382812 C 31.628906 40.925781 31.425781 40.316406 31.730469 39.710938 C 32.136719 38.847656 33.050781 38.289062 34.011719 38.390625 C 35.988281 38.492188 37.5625 39.40625 38.878906 40.824219 C 40.398438 42.398438 41.820312 43.96875 43.59375 45.289062 C 45.46875 46.707031 46.078125 46.503906 47.039062 44.425781 C 48.8125 40.621094 48.914062 36.71875 47.851562 32.710938 C 46.785156 28.550781 45.265625 24.445312 45.46875 20.03125 C 45.570312 17.445312 46.179688 15.925781 47.496094 15.976562 C 49.726562 16.078125 49.472656 18.105469 49.726562 19.472656 C 50.539062 23.886719 51.347656 28.347656 53.019531 32.558594 C 53.222656 33.117188 53.273438 34.179688 54.1875 33.929688 C 54.898438 33.726562 54.59375 32.863281 54.542969 32.304688 C 54.1875 27.082031 53.628906 21.859375 54.59375 16.632812 C 54.746094 15.722656 54.847656 14.808594 55.453125 14.046875 C 56.011719 13.386719 56.671875 12.933594 57.53125 13.1875 C 58.34375 13.4375 58.699219 14.097656 58.699219 14.910156 C 58.75 16.886719 58.851562 18.867188 58.699219 20.84375 C 58.445312 24.648438 59.15625 28.347656 59.507812 32.101562 C 59.558594 32.609375 59.507812 33.421875 60.21875 33.421875 C 60.777344 33.421875 61.082031 32.710938 61.183594 32.203125 C 62.09375 28.246094 63.617188 24.394531 64.121094 20.335938 C 64.273438 19.320312 64.375 18.257812 64.882812 17.292969 C 65.339844 16.480469 65.898438 16.128906 66.808594 16.277344 C 67.824219 16.429688 68.328125 16.988281 68.378906 18.003906 C 68.429688 18.511719 68.429688 18.96875 68.328125 19.472656 C 67.417969 24.445312 66.960938 29.515625 65.441406 34.382812 C 65.390625 34.636719 65.339844 34.839844 65.289062 35.09375 C 65.1875 35.652344 64.984375 36.363281 65.542969 36.617188 C 66.199219 36.972656 66.65625 36.261719 67.011719 35.804688 C 69.039062 33.371094 70.964844 30.886719 72.285156 27.996094 C 72.484375 27.488281 72.789062 27.03125 73.195312 26.625 C 73.753906 26.015625 74.464844 25.609375 75.375 25.964844 C 76.390625 26.421875 76.035156 27.285156 75.933594 28.046875 C 75.78125 29.363281 75.273438 30.582031 74.515625 31.644531 C 70.257812 37.425781 68.835938 44.019531 68.886719 51.019531 C 68.886719 53.097656 68.378906 55.175781 67.46875 57.054688 C 66.605469 58.878906 66.554688 60.804688 66.65625 62.835938 C 67.011719 69.429688 68.378906 75.917969 69.140625 82.460938 C 70.054688 90.222656 70.40625 98.03125 69.800781 105.789062 L 75.425781 105.789062 C 75.679688 105.789062 75.933594 105.789062 76.1875 105.738281 C 76.542969 105.6875 76.894531 105.636719 77.25 105.535156 C 77.503906 105.484375 77.757812 105.382812 78.011719 105.28125 C 78.214844 105.230469 78.367188 105.128906 78.570312 105.027344 C 78.824219 104.878906 79.125 104.777344 79.378906 104.574219 C 80.039062 104.167969 80.648438 103.660156 81.101562 103.050781 L 81.40625 102.289062 C 82.066406 94.226562 81.253906 86.214844 80.851562 78.203125 C 80.648438 73.941406 76.695312 68.921875 71.371094 68.820312 C 70.40625 68.820312 69.089844 69.125 69.039062 67.5 C 69.039062 66.183594 69.902344 65.371094 71.21875 65.167969 C 72.890625 64.914062 74.566406 65.066406 76.136719 65.675781 C 79.378906 66.839844 81.253906 65.167969 80.34375 61.71875 C 79.378906 57.964844 78.773438 54.164062 78.46875 50.308594 C 78.367188 49.292969 78.214844 48.28125 78.519531 47.265625 C 78.824219 46.300781 79.277344 45.441406 80.445312 45.492188 C 81.710938 45.542969 81.609375 46.65625 81.761719 47.519531 C 82.320312 50.765625 83.03125 53.910156 84.652344 57.15625 C 85.410156 55.886719 85.460938 54.722656 85.5625 53.707031 C 85.714844 51.273438 86.527344 48.9375 86.78125 46.503906 C 86.832031 46.046875 86.984375 45.644531 87.238281 45.238281 C 87.640625 44.527344 88.199219 43.96875 89.113281 44.171875 C 90.125 44.375 90.429688 45.1875 90.378906 46.097656 C 90.226562 48.382812 89.972656 50.714844 89.769531 52.996094 C 89.671875 54.367188 89.570312 55.683594 89.820312 57.15625 C 90.734375 54.570312 91.648438 51.980469 92.507812 49.394531 C 92.964844 48.078125 93.066406 46.199219 95.042969 46.757812 C 96.816406 47.316406 95.855469 48.988281 95.601562 50.105469 C 94.992188 53.199219 94.179688 56.242188 93.472656 59.335938 C 93.320312 60.046875 92.964844 60.957031 93.878906 61.414062 C 94.6875 61.820312 95.144531 60.957031 95.601562 60.453125 C 97.425781 58.421875 99.148438 56.34375 100.972656 54.367188 C 101.480469 53.808594 102.039062 52.792969 103.050781 53.453125 C 103.914062 54.0625 103.710938 55.074219 103.304688 55.9375 C 102.597656 57.511719 101.632812 58.980469 100.519531 60.300781 C 98.792969 62.277344 97.527344 64.457031 97.121094 67.09375 C 96.867188 68.820312 96.410156 70.492188 95.703125 72.066406 C 93.625 76.425781 93.523438 80.941406 94.230469 85.605469 C 94.28125 85.910156 94.332031 86.214844 94.382812 86.519531 L 107.308594 70.441406 C 107.816406 69.832031 108.171875 69.125 108.425781 68.414062 C 108.527344 68.109375 108.628906 67.804688 108.679688 67.5 C 108.984375 66.4375 108.984375 65.371094 108.78125 64.355469 Z M 108.78125 64.355469 "/>
<path style=" stroke:none;fill-rule:nonzero;fill:rgb(0%,0%,0%);fill-opacity:1;" d="M 9.984375 132.972656 L 16.828125 132.972656 L 16.828125 139.414062 C 15.308594 141.035156 12.875 142 10.542969 142 C 6.03125 142 2.179688 138.296875 2.179688 133.9375 C 2.179688 129.574219 6.03125 125.871094 10.542969 125.871094 C 12.875 125.871094 15.257812 126.835938 16.828125 128.460938 L 14.394531 130.640625 C 13.484375 129.574219 11.960938 128.914062 10.542969 128.914062 C 7.855469 128.914062 5.625 131.25 5.625 133.9375 C 5.625 136.675781 7.855469 138.957031 10.542969 138.957031 C 11.609375 138.957031 12.671875 138.601562 13.535156 137.941406 L 13.535156 135.558594 L 9.933594 135.558594 L 9.933594 132.972656 Z M 9.984375 132.972656 "/>
<path style=" stroke:none;fill-rule:nonzero;fill:rgb(0%,0%,0%);fill-opacity:1;" d="M 29.148438 136.421875 L 32.898438 141.746094 L 29.097656 141.746094 L 25.546875 136.675781 L 23.519531 136.675781 L 23.519531 141.746094 L 20.175781 141.746094 L 20.175781 126.175781 L 27.167969 126.175781 C 30.566406 126.175781 33.050781 128.359375 33.050781 131.453125 C 33.050781 133.835938 31.476562 135.710938 29.148438 136.421875 Z M 23.519531 133.632812 L 26.816406 133.632812 C 28.488281 133.632812 29.601562 132.769531 29.601562 131.453125 C 29.601562 130.132812 28.488281 129.269531 26.816406 129.269531 L 23.519531 129.269531 Z M 23.519531 133.632812 "/>
<path style=" stroke:none;fill-rule:nonzero;fill:rgb(0%,0%,0%);fill-opacity:1;" d="M 35.179688 133.9375 C 35.179688 129.574219 38.980469 125.871094 43.492188 125.871094 C 48.003906 125.871094 51.753906 129.523438 51.753906 133.9375 C 51.753906 138.296875 48.003906 142 43.492188 142 C 38.980469 142 35.179688 138.296875 35.179688 133.9375 Z M 48.308594 133.9375 C 48.308594 131.25 46.078125 128.914062 43.492188 128.914062 C 40.855469 128.914062 38.625 131.25 38.625 133.9375 C 38.625 136.675781 40.855469 138.957031 43.492188 138.957031 C 46.078125 138.957031 48.308594 136.625 48.308594 133.9375 Z M 48.308594 133.9375 "/>
<path style=" stroke:none;fill-rule:nonzero;fill:rgb(0%,0%,0%);fill-opacity:1;" d="M 53.425781 126.125 L 57.078125 126.125 L 59.964844 136.574219 L 63.414062 126.125 L 67.0625 126.125 L 70.507812 136.574219 L 73.347656 126.125 L 76.996094 126.125 L 72.285156 141.695312 L 68.886719 141.695312 L 65.238281 130.996094 L 61.539062 141.695312 L 58.140625 141.695312 Z M 53.425781 126.125 "/>
<path style=" stroke:none;fill-rule:nonzero;fill:rgb(0%,0%,0%);fill-opacity:1;" d="M 79.632812 126.125 L 82.980469 126.125 L 82.980469 141.695312 L 79.632812 141.695312 Z M 79.632812 126.125 "/>
<path style=" stroke:none;fill-rule:nonzero;fill:rgb(0%,0%,0%);fill-opacity:1;" d="M 86.882812 126.125 L 90.226562 126.125 L 97.730469 136.21875 L 97.730469 126.125 L 101.074219 126.125 L 101.074219 141.695312 L 97.730469 141.695312 L 90.226562 131.605469 L 90.226562 141.695312 L 86.882812 141.695312 Z M 86.882812 126.125 "/>
<path style=" stroke:none;fill-rule:nonzero;fill:rgb(0%,0%,0%);fill-opacity:1;" d="M 111.871094 132.972656 L 118.714844 132.972656 L 118.714844 139.414062 C 117.195312 141.035156 114.761719 142 112.429688 142 C 107.917969 142 104.066406 138.296875 104.066406 133.9375 C 104.066406 129.574219 107.917969 125.871094 112.429688 125.871094 C 114.761719 125.871094 117.144531 126.835938 118.714844 128.460938 L 116.28125 130.640625 C 115.371094 129.574219 113.847656 128.914062 112.429688 128.914062 C 109.742188 128.914062 107.511719 131.25 107.511719 133.9375 C 107.511719 136.675781 109.742188 138.957031 112.429688 138.957031 C 113.492188 138.957031 114.558594 138.601562 115.421875 137.941406 L 115.421875 135.558594 L 111.820312 135.558594 L 111.820312 132.972656 Z M 111.871094 132.972656 "/>
<path style=" stroke:none;fill-rule:nonzero;fill:rgb(0%,0%,0%);fill-opacity:1;" d="M 127.332031 133.9375 C 127.332031 129.574219 131.132812 125.871094 135.644531 125.871094 C 137.976562 125.871094 140.15625 126.886719 141.675781 128.460938 L 139.246094 130.640625 C 138.382812 129.574219 137.066406 128.914062 135.644531 128.914062 C 133.007812 128.914062 130.78125 131.25 130.78125 133.9375 C 130.78125 136.675781 133.007812 138.957031 135.644531 138.957031 C 137.066406 138.957031 138.382812 138.246094 139.246094 137.234375 L 141.675781 139.414062 C 140.15625 140.984375 138.027344 142 135.644531 142 C 131.132812 142 127.332031 138.296875 127.332031 133.9375 Z M 127.332031 133.9375 "/>
<path style=" stroke:none;fill-rule:nonzero;fill:rgb(0%,0%,0%);fill-opacity:1;" d="M 155.414062 138.703125 L 155.414062 141.695312 L 144.3125 141.695312 L 144.3125 126.125 L 147.660156 126.125 L 147.660156 138.703125 Z M 155.414062 138.703125 "/>
<path style=" stroke:none;fill-rule:nonzero;fill:rgb(0%,0%,0%);fill-opacity:1;" d="M 157.1875 133.9375 C 157.1875 129.574219 160.992188 125.871094 165.5 125.871094 C 170.011719 125.871094 173.765625 129.523438 173.765625 133.9375 C 173.765625 138.296875 170.011719 142 165.5 142 C 160.992188 142 157.1875 138.296875 157.1875 133.9375 Z M 170.316406 133.9375 C 170.316406 131.25 168.085938 128.914062 165.5 128.914062 C 162.867188 128.914062 160.636719 131.25 160.636719 133.9375 C 160.636719 136.675781 162.867188 138.957031 165.5 138.957031 C 168.085938 138.957031 170.316406 136.625 170.316406 133.9375 Z M 170.316406 133.9375 "/>
<path style=" stroke:none;fill-rule:nonzero;fill:rgb(0%,0%,0%);fill-opacity:1;" d="M 176.449219 135 L 176.449219 126.175781 L 179.796875 126.175781 L 179.796875 134.898438 C 179.796875 137.285156 181.316406 139.007812 183.496094 139.007812 C 185.625 139.007812 187.195312 137.285156 187.195312 134.898438 L 187.195312 126.175781 L 190.542969 126.175781 L 190.542969 135 C 190.542969 139.109375 187.601562 142 183.496094 142 C 179.339844 142 176.449219 139.109375 176.449219 135 Z M 176.449219 135 "/>
<path style=" stroke:none;fill-rule:nonzero;fill:rgb(0%,0%,0%);fill-opacity:1;" d="M 194.140625 126.125 L 199.71875 126.125 C 204.9375 126.125 208.6875 129.320312 208.6875 133.886719 C 208.6875 138.449219 204.988281 141.695312 199.71875 141.695312 L 194.140625 141.695312 Z M 200.171875 138.703125 C 203.164062 138.703125 205.242188 136.726562 205.242188 133.9375 C 205.242188 131.148438 203.113281 129.21875 200.171875 129.21875 L 197.488281 129.21875 L 197.488281 138.703125 Z M 200.171875 138.703125 "/>
<path style=" stroke:none;fill-rule:nonzero;fill:rgb(0%,0%,0%);fill-opacity:1;" d="M 217.8125 126.125 L 221.160156 126.125 L 228.660156 136.21875 L 228.660156 126.125 L 232.007812 126.125 L 232.007812 141.695312 L 228.660156 141.695312 L 221.160156 131.605469 L 221.160156 141.695312 L 217.8125 141.695312 Z M 217.8125 126.125 "/>
<path style=" stroke:none;fill-rule:nonzero;fill:rgb(0%,0%,0%);fill-opacity:1;" d="M 246.148438 139.058594 L 239.40625 139.058594 L 238.34375 141.746094 L 234.589844 141.746094 L 240.929688 126.175781 L 244.679688 126.175781 L 251.015625 141.746094 L 247.265625 141.746094 Z M 245.085938 136.421875 L 242.753906 130.742188 L 240.421875 136.421875 Z M 245.085938 136.421875 "/>
<path style=" stroke:none;fill-rule:nonzero;fill:rgb(0%,0%,0%);fill-opacity:1;" d="M 257.148438 129.167969 L 252.28125 129.167969 L 252.28125 126.175781 L 265.359375 126.175781 L 265.359375 129.167969 L 260.492188 129.167969 L 260.492188 141.746094 L 257.148438 141.746094 Z M 257.148438 129.167969 "/>
<path style=" stroke:none;fill-rule:nonzero;fill:rgb(0%,0%,0%);fill-opacity:1;" d="M 267.996094 126.125 L 271.339844 126.125 L 271.339844 141.695312 L 267.996094 141.695312 Z M 267.996094 126.125 "/>
<path style=" stroke:none;fill-rule:nonzero;fill:rgb(0%,0%,0%);fill-opacity:1;" d="M 290.351562 126.125 L 284.015625 141.695312 L 280.261719 141.695312 L 273.925781 126.125 L 277.679688 126.125 L 282.136719 137.082031 L 286.597656 126.125 Z M 290.351562 126.125 "/>
<path style=" stroke:none;fill-rule:nonzero;fill:rgb(0%,0%,0%);fill-opacity:1;" d="M 296.230469 129.167969 L 296.230469 132.261719 L 304.085938 132.261719 L 304.085938 135.253906 L 296.230469 135.253906 L 296.230469 138.703125 L 304.847656 138.703125 L 304.847656 141.695312 L 292.835938 141.695312 L 292.835938 126.125 L 304.847656 126.125 L 304.847656 129.117188 L 296.230469 129.117188 Z M 296.230469 129.167969 "/>
<path style=" stroke:none;fill-rule:nonzero;fill:rgb(0%,0%,0%);fill-opacity:1;" d="M 317.875 129.167969 L 313.007812 129.167969 L 313.007812 126.175781 L 326.085938 126.175781 L 326.085938 129.167969 L 321.21875 129.167969 L 321.21875 141.746094 L 317.875 141.746094 Z M 317.875 129.167969 "/>
<path style=" stroke:none;fill-rule:nonzero;fill:rgb(0%,0%,0%);fill-opacity:1;" d="M 327.808594 133.9375 C 327.808594 129.574219 331.613281 125.871094 336.125 125.871094 C 340.632812 125.871094 344.386719 129.523438 344.386719 133.9375 C 344.386719 138.296875 340.632812 142 336.125 142 C 331.664062 142 327.808594 138.296875 327.808594 133.9375 Z M 340.9375 133.9375 C 340.9375 131.25 338.707031 128.914062 336.125 128.914062 C 333.488281 128.914062 331.257812 131.25 331.257812 133.9375 C 331.257812 136.675781 333.488281 138.957031 336.125 138.957031 C 338.707031 138.957031 340.9375 136.625 340.9375 133.9375 Z M 340.9375 133.9375 "/>
<path style=" stroke:none;fill-rule:nonzero;fill:rgb(0%,0%,0%);fill-opacity:1;" d="M 354.269531 132.972656 L 361.113281 132.972656 L 361.113281 139.414062 C 359.59375 141.035156 357.160156 142 354.828125 142 C 350.316406 142 346.464844 138.296875 346.464844 133.9375 C 346.464844 129.574219 350.316406 125.871094 354.828125 125.871094 C 357.160156 125.871094 359.542969 126.835938 361.113281 128.460938 L 358.679688 130.640625 C 357.769531 129.574219 356.246094 128.914062 354.828125 128.914062 C 352.140625 128.914062 349.910156 131.25 349.910156 133.9375 C 349.910156 136.675781 352.140625 138.957031 354.828125 138.957031 C 355.890625 138.957031 356.957031 138.601562 357.816406 137.941406 L 357.816406 135.558594 L 354.21875 135.558594 L 354.21875 132.972656 Z M 354.269531 132.972656 "/>
<path style=" stroke:none;fill-rule:nonzero;fill:rgb(0%,0%,0%);fill-opacity:1;" d="M 367.804688 129.167969 L 367.804688 132.261719 L 375.660156 132.261719 L 375.660156 135.253906 L 367.804688 135.253906 L 367.804688 138.703125 L 376.421875 138.703125 L 376.421875 141.695312 L 364.457031 141.695312 L 364.457031 126.125 L 376.472656 126.125 L 376.472656 129.117188 L 367.804688 129.117188 Z M 367.804688 129.167969 "/>
<path style=" stroke:none;fill-rule:nonzero;fill:rgb(0%,0%,0%);fill-opacity:1;" d="M 383.265625 129.167969 L 378.398438 129.167969 L 378.398438 126.175781 L 391.476562 126.175781 L 391.476562 129.167969 L 386.609375 129.167969 L 386.609375 141.746094 L 383.265625 141.746094 Z M 383.265625 129.167969 "/>
<path style=" stroke:none;fill-rule:nonzero;fill:rgb(0%,0%,0%);fill-opacity:1;" d="M 407.898438 126.125 L 407.898438 141.695312 L 404.554688 141.695312 L 404.554688 135.253906 L 397.457031 135.253906 L 397.457031 141.695312 L 394.113281 141.695312 L 394.113281 126.125 L 397.457031 126.125 L 397.457031 132.261719 L 404.554688 132.261719 L 404.554688 126.125 Z M 407.898438 126.125 "/>
<path style=" stroke:none;fill-rule:nonzero;fill:rgb(0%,0%,0%);fill-opacity:1;" d="M 415.25 129.167969 L 415.25 132.261719 L 423.105469 132.261719 L 423.105469 135.253906 L 415.25 135.253906 L 415.25 138.703125 L 423.867188 138.703125 L 423.867188 141.695312 L 411.851562 141.695312 L 411.851562 126.125 L 423.867188 126.125 L 423.867188 129.117188 L 415.25 129.117188 Z M 415.25 129.167969 "/>
<path style=" stroke:none;fill-rule:nonzero;fill:rgb(0%,0%,0%);fill-opacity:1;" d="M 436.082031 136.421875 L 439.835938 141.746094 L 436.03125 141.746094 L 432.484375 136.675781 L 430.457031 136.675781 L 430.457031 141.746094 L 427.109375 141.746094 L 427.109375 126.175781 L 434.105469 126.175781 C 437.503906 126.175781 439.984375 128.359375 439.984375 131.453125 C 439.984375 133.835938 438.414062 135.710938 436.082031 136.421875 Z M 430.457031 133.632812 L 433.75 133.632812 C 435.425781 133.632812 436.539062 132.769531 436.539062 131.453125 C 436.539062 130.132812 435.425781 129.269531 433.75 129.269531 L 430.457031 129.269531 Z M 430.457031 133.632812 "/>
</g>
</svg>
